<?xml version="1.0" encoding="utf-8"?>
<!-- Generator: Adobe Illustrator 27.5.0, SVG Export Plug-In . SVG Version: 6.00 Build 0)  -->
<svg version="1.1" id="Layer_1_1_" xmlns="http://www.w3.org/2000/svg" xmlns:xlink="http://www.w3.org/1999/xlink" x="0px" y="0px"
	 viewBox="0 0 550 550" style="enable-background:new 0 0 550 550;" xml:space="preserve">
<g>
	<rect x="0" y="0" style="fill:#FFFFFF;" width="550" height="550"/>
	<g>
		<linearGradient id="SVGID_1_" gradientUnits="userSpaceOnUse" x1="399.2519" y1="506.6943" x2="267.7983" y2="279.01">
			<stop  offset="0" style="stop-color:#64E434"/>
			<stop  offset="0.0805" style="stop-color:#75E84F"/>
			<stop  offset="0.2199" style="stop-color:#8FEF76"/>
			<stop  offset="0.3571" style="stop-color:#A4F496"/>
			<stop  offset="0.49" style="stop-color:#B2F7AC"/>
			<stop  offset="0.6165" style="stop-color:#BBF9B9"/>
			<stop  offset="0.7297" style="stop-color:#BEFABE"/>
		</linearGradient>
		<path style="fill:url(#SVGID_1_);" d="M333.013,500.876c-1.101,0-2.199-0.005-3.302-0.017
			c-49.263-0.499-95.209-12.098-129.376-32.661c-33.954-20.435-52.392-47.441-51.918-76.043c0.238-14.383,5.227-28.35,14.828-41.513
			c9.859-13.516,24.162-25.557,42.511-35.788c35.599-19.85,82.328-30.517,131.583-30.009c49.263,0.498,95.209,12.098,129.376,32.661
			c33.954,20.435,52.392,47.441,51.918,76.043c-0.238,14.383-5.227,28.35-14.828,41.513c-9.859,13.516-24.162,25.557-42.511,35.789
			C426.493,490.256,381.049,500.876,333.013,500.876z M334.098,288.642c-45.518,0-91.131,9.804-126.496,29.523
			c-35.257,19.659-54.93,45.959-55.395,74.053c-0.45,27.194,17.336,53.024,50.083,72.733c35.5,21.366,83.029,32.11,130.662,32.112
			c45.518,0.002,91.131-9.804,126.496-29.523c35.257-19.659,54.93-45.959,55.395-74.053c0.45-27.194-17.336-53.024-50.083-72.733
			C429.26,299.388,381.732,288.642,334.098,288.642z"/>
	</g>
	<g>
		<path style="fill:#D2D6E2;" d="M102.299,411.495l140.849-81.554c6.102-3.523,5.33-9.734-1.716-13.802l-6.071-3.505
			c-7.046-4.068-17.804-4.514-23.906-0.991L70.605,393.196c-6.102,3.523-5.33,9.734,1.716,13.802l6.071,3.505
			C85.438,414.572,96.196,415.018,102.299,411.495z"/>
		<g>
			<g>
				<polygon style="fill:#B6B8CA;" points="99.425,385.767 248.502,298.947 248.495,301.135 99.419,387.956 				"/>
				<path style="fill:#DDDFEB;" d="M77.877,351.552l149.077-86.82c1.368,13.188,10.635,27.915,21.548,34.216l-149.077,86.82
					C88.512,379.467,79.246,364.74,77.877,351.552z"/>
				<path style="fill:#DDDFEB;" d="M34.715,140.489l149.077-86.82c2.05,0.536,4.179,1.433,6.324,2.672l-149.077,86.82
					C38.894,141.922,36.766,141.025,34.715,140.489z"/>
				<polygon style="fill:#DDDFEB;" points="64.496,180.591 213.573,93.771 226.954,264.731 77.877,351.552 				"/>
				<path style="fill:#E7E8F5;" d="M41.039,143.161l149.077-86.82c11.942,6.895,22.026,22.986,23.457,37.431l-149.077,86.82
					C63.066,166.147,52.981,150.056,41.039,143.161z"/>
				<path style="fill:#B6B8CA;" d="M41.039,143.161c11.942,6.895,22.026,22.986,23.457,37.431l13.382,170.96
					c1.368,13.188,10.635,27.915,21.548,34.215l-0.006,2.189c-11.867-6.851-21.941-22.862-23.437-37.249L62.601,179.742
					c-1.313-13.255-10.586-28.049-21.568-34.389c-1.973-1.139-3.93-1.969-5.816-2.457l-0.502-2.407
					C36.766,141.025,38.894,141.922,41.039,143.161z"/>
			</g>
			<g>
				<g>
					<path style="fill:#BDC0E6;" d="M82.235,225.372l2.353,28.526l24.165-14.353L106.4,211.02L82.235,225.372z M105.121,237.605
						l-17.546,10.421l-1.708-20.713l17.546-10.421L105.121,237.605z"/>
					<polygon style="fill:#C7C8D9;" points="197.822,161.932 116.342,210.351 115.93,205.359 197.411,156.94 					"/>
					<polygon style="fill:#C7C8D9;" points="164.793,144.04 102.974,180.856 100.964,174.309 162.783,137.494 					"/>
					<polygon style="fill:#C7C8D9;" points="180.435,120.321 99.241,168.697 97.231,162.151 178.425,113.774 					"/>
					<polygon style="fill:#C7C8D9;" points="190.07,181.498 117.518,224.614 117.107,219.622 189.658,176.506 					"/>
					<path style="fill:#BDC0E6;" d="M85.902,269.831l2.353,28.526l24.165-14.353l-2.353-28.526L85.902,269.831z M108.788,282.063
						l-17.546,10.421l-1.708-20.713l17.546-10.421L108.788,282.063z"/>
					<polygon style="fill:#C7C8D9;" points="201.489,206.39 120.009,254.809 119.597,249.817 201.078,201.398 					"/>
					<polygon style="fill:#C7C8D9;" points="193.737,225.956 121.185,269.072 120.773,264.08 193.325,220.965 					"/>
					<path style="fill:#BDC0E6;" d="M89.569,314.289l2.353,28.526l24.164-14.353l-2.353-28.526L89.569,314.289z M112.455,326.521
						l-17.546,10.421l-1.708-20.713l17.546-10.421L112.455,326.521z"/>
					<polygon style="fill:#C7C8D9;" points="205.156,250.848 123.676,299.267 123.264,294.276 204.745,245.856 					"/>
					<polygon style="fill:#C7C8D9;" points="197.404,270.414 124.852,313.53 124.44,308.539 196.992,265.423 					"/>
				</g>
				<polygon style="fill:#6FD42C;" points="81.993,237.647 85.631,228.455 93.844,230.228 106.308,198.748 112.47,199.832 
					95.898,241.13 				"/>
				<polygon style="fill:#6FD42C;" points="85.686,282.426 89.324,273.233 97.538,275.007 110.001,243.526 116.163,244.61 
					99.591,285.909 				"/>
				<polygon style="fill:#6FD42C;" points="89.379,327.204 93.018,318.011 101.231,319.785 113.695,288.305 119.857,289.389 
					103.285,330.687 				"/>
			</g>
		</g>
	</g>
	<g>
		<g>
			
				<linearGradient id="SVGID_00000127742173054835322920000010401020392126160803_" gradientUnits="userSpaceOnUse" x1="390.2303" y1="491.0685" x2="276.8199" y2="294.636">
				<stop  offset="0" style="stop-color:#74DE4B"/>
				<stop  offset="0.041" style="stop-color:#76DF4D"/>
				<stop  offset="0.4041" style="stop-color:#82E65A"/>
				<stop  offset="0.7297" style="stop-color:#86E85F"/>
			</linearGradient>
			<path style="fill:url(#SVGID_00000127742173054835322920000010401020392126160803_);" d="M449.259,328.318
				c61.324,36.908,59.22,95.721-4.698,131.362c-63.918,35.641-165.447,34.614-226.771-2.294
				c-61.324-36.908-59.221-95.72,4.698-131.361C286.407,290.383,387.936,291.41,449.259,328.318z"/>
		</g>
	</g>
	<defs>
		<filter id="Adobe_OpacityMaskFilter" filterUnits="userSpaceOnUse" x="173.249" y="232.452" width="320.424" height="157.289">
			<feFlood  style="flood-color:white;flood-opacity:1" result="back"/>
			<feBlend  in="SourceGraphic" in2="back" mode="normal"/>
		</filter>
	</defs>
	
		<mask maskUnits="userSpaceOnUse" x="173.249" y="232.452" width="320.424" height="157.289" id="SVGID_00000130605261101133030300000010275428021983303071_">
		<g style="filter:url(#Adobe_OpacityMaskFilter);">
			<defs>
				
					<filter id="Adobe_OpacityMaskFilter_00000123401575863938858790000008806615603032445860_" filterUnits="userSpaceOnUse" x="173.249" y="232.452" width="320.424" height="157.289">
					<feFlood  style="flood-color:white;flood-opacity:1" result="back"/>
					<feBlend  in="SourceGraphic" in2="back" mode="normal"/>
				</filter>
			</defs>
			
				<mask maskUnits="userSpaceOnUse" x="173.249" y="232.452" width="320.424" height="157.289" id="SVGID_00000130605261101133030300000010275428021983303071_">
				<g style="filter:url(#Adobe_OpacityMaskFilter_00000123401575863938858790000008806615603032445860_);">
				</g>
			</mask>
			
				<linearGradient id="SVGID_00000103959055598950066850000013939719373401281710_" gradientUnits="userSpaceOnUse" x1="173.2489" y1="311.097" x2="493.6729" y2="311.097">
				<stop  offset="0" style="stop-color:#FFFFFF"/>
				<stop  offset="0.125" style="stop-color:#F8F8F8"/>
				<stop  offset="0.304" style="stop-color:#E5E5E5"/>
				<stop  offset="0.5158" style="stop-color:#C6C6C6"/>
				<stop  offset="0.7524" style="stop-color:#9B9B9B"/>
				<stop  offset="1" style="stop-color:#666666"/>
			</linearGradient>
			
				<path style="mask:url(#SVGID_00000130605261101133030300000010275428021983303071_);fill:url(#SVGID_00000103959055598950066850000013939719373401281710_);" d="
				M493.673,387.547c-0.378-6.799-0.99-14.579-1.855-20.671c-0.801-5.645-2.6-13.061-4.159-18.546
				c-1.579-5.56-4.095-12.875-6.432-18.162c-2.932-6.633-7.513-15.171-11.091-21.478c-2.914-5.138-7.617-11.511-11.348-16.091
				c-4.196-5.152-10.292-11.609-15.018-16.279c-4.619-4.563-11.535-9.835-16.708-13.758c-3.097-2.348-7.508-5.091-10.823-7.119
				l-0.001,0c-5.046-2.933-11.909-6.641-17.242-9.014c-2.963-1.318-6.971-2.948-10.009-4.084c-2.655-0.993-6.229-2.235-8.955-3.008
				c-2.317-0.657-5.388-1.609-7.738-2.135c-2.293-0.513-5.34-1.25-7.645-1.706c-2.308-0.456-5.404-0.974-7.729-1.33
				c-2.22-0.34-5.19-0.741-7.429-0.916c-4.292-0.336-10.025-0.714-14.331-0.785c-2.145-0.036-5.007,0.012-7.152,0.086
				c-2.148,0.074-5.007,0.282-7.153,0.404c-2.186,0.125-5.09,0.458-7.262,0.739c-2.223,0.288-5.183,0.715-7.392,1.098
				c-2.273,0.394-5.282,1.04-7.545,1.49c-2.316,0.46-5.35,1.316-7.639,1.899c-2.508,0.639-5.8,1.687-8.252,2.512
				c-2.658,0.895-6.183,2.159-8.778,3.223c-2.57,1.054-5.985,2.496-8.493,3.692c-3.066,1.462-7.121,3.49-10.075,5.165
				c-2.676,1.518-6.225,3.58-8.793,5.274c-3.471,2.289-8.015,5.472-11.321,7.993c-5.251,4.004-11.729,10.007-16.453,14.622
				c-3.797,3.71-8.444,9.085-11.67,13.301c-3.908,5.108-8.815,12.17-12.063,17.72c-3.676,6.279-7.733,15.125-10.647,21.791
				c-1.624,3.716-3.404,8.845-4.458,12.76c-1.96,7.281-4.277,17.092-5.367,24.553c-0.815,5.581-1.189,12.789-1.399,18.956
				c1.472-23.267,17.948-46.269,49.24-63.717c63.918-35.641,165.447-34.614,226.771,2.294l0,0
				C476.943,344.98,491.692,366.105,493.673,387.547z M426.831,263.676c-0.028-0.028-0.058-0.054-0.086-0.082
				C426.773,263.622,426.803,263.648,426.831,263.676z"/>
		</g>
	</mask>
	
		<linearGradient id="SVGID_00000066516631365666726310000016784273240215920310_" gradientUnits="userSpaceOnUse" x1="173.2489" y1="311.097" x2="493.6729" y2="311.097">
		<stop  offset="0" style="stop-color:#A6FF9E"/>
		<stop  offset="1" style="stop-color:#A6FF9E"/>
	</linearGradient>
	<path style="fill:url(#SVGID_00000066516631365666726310000016784273240215920310_);" d="M493.673,387.547
		c-0.378-6.799-0.99-14.579-1.855-20.671c-0.801-5.645-2.6-13.061-4.159-18.546c-1.579-5.56-4.095-12.875-6.432-18.162
		c-2.932-6.633-7.513-15.171-11.091-21.478c-2.914-5.138-7.617-11.511-11.348-16.091c-4.196-5.152-10.292-11.609-15.018-16.279
		c-4.619-4.563-11.535-9.835-16.708-13.758c-3.097-2.348-7.508-5.091-10.823-7.119l-0.001,0c-5.046-2.933-11.909-6.641-17.242-9.014
		c-2.963-1.318-6.971-2.948-10.009-4.084c-2.655-0.993-6.229-2.235-8.955-3.008c-2.317-0.657-5.388-1.609-7.738-2.135
		c-2.293-0.513-5.34-1.25-7.645-1.706c-2.308-0.456-5.404-0.974-7.729-1.33c-2.22-0.34-5.19-0.741-7.429-0.916
		c-4.292-0.336-10.025-0.714-14.331-0.785c-2.145-0.036-5.007,0.012-7.152,0.086c-2.148,0.074-5.007,0.282-7.153,0.404
		c-2.186,0.125-5.09,0.458-7.262,0.739c-2.223,0.288-5.183,0.715-7.392,1.098c-2.273,0.394-5.282,1.04-7.545,1.49
		c-2.316,0.46-5.35,1.316-7.639,1.899c-2.508,0.639-5.8,1.687-8.252,2.512c-2.658,0.895-6.183,2.159-8.778,3.223
		c-2.57,1.054-5.985,2.496-8.493,3.692c-3.066,1.462-7.121,3.49-10.075,5.165c-2.676,1.518-6.225,3.58-8.793,5.274
		c-3.471,2.289-8.015,5.472-11.321,7.993c-5.251,4.004-11.729,10.007-16.453,14.622c-3.797,3.71-8.444,9.085-11.67,13.301
		c-3.908,5.108-8.815,12.17-12.063,17.72c-3.676,6.279-7.733,15.125-10.647,21.791c-1.624,3.716-3.404,8.845-4.458,12.76
		c-1.96,7.281-4.277,17.092-5.367,24.553c-0.815,5.581-1.189,12.789-1.399,18.956c1.472-23.267,17.948-46.269,49.24-63.717
		c63.918-35.641,165.447-34.614,226.771,2.294l0,0C476.943,344.98,491.692,366.105,493.673,387.547z M426.831,263.676
		c-0.028-0.028-0.058-0.054-0.086-0.082C426.773,263.622,426.803,263.648,426.831,263.676z"/>
	<path style="fill:#00AD00;" d="M173.249,389.742c-0.076,1.192-0.113,2.385-0.109,3.578
		C173.171,392.185,173.207,390.983,173.249,389.742z"/>
	<defs>
		
			<filter id="Adobe_OpacityMaskFilter_00000183227718235032524260000010688618683441131686_" filterUnits="userSpaceOnUse" x="173.139" y="232.452" width="320.771" height="253.301">
			<feFlood  style="flood-color:white;flood-opacity:1" result="back"/>
			<feBlend  in="SourceGraphic" in2="back" mode="normal"/>
		</filter>
	</defs>
	
		<mask maskUnits="userSpaceOnUse" x="173.139" y="232.452" width="320.771" height="253.301" id="SVGID_00000121255536669440434440000005017758314352678317_">
		<g style="filter:url(#Adobe_OpacityMaskFilter_00000183227718235032524260000010688618683441131686_);">
			<defs>
				
					<filter id="Adobe_OpacityMaskFilter_00000092416887739884254400000000140215823681617033_" filterUnits="userSpaceOnUse" x="173.139" y="232.452" width="320.771" height="253.301">
					<feFlood  style="flood-color:white;flood-opacity:1" result="back"/>
					<feBlend  in="SourceGraphic" in2="back" mode="normal"/>
				</filter>
			</defs>
			
				<mask maskUnits="userSpaceOnUse" x="173.139" y="232.452" width="320.771" height="253.301" id="SVGID_00000121255536669440434440000005017758314352678317_">
				<g style="filter:url(#Adobe_OpacityMaskFilter_00000092416887739884254400000000140215823681617033_);">
				</g>
			</mask>
			
				<linearGradient id="SVGID_00000089551725179664485790000005242393193040003993_" gradientUnits="userSpaceOnUse" x1="206.2088" y1="405.4318" x2="488.1771" y2="309.1552">
				<stop  offset="0" style="stop-color:#999999"/>
				<stop  offset="0.1005" style="stop-color:#8A8A8A"/>
				<stop  offset="0.295" style="stop-color:#626262"/>
				<stop  offset="0.5619" style="stop-color:#212121"/>
				<stop  offset="0.5919" style="stop-color:#1A1A1A"/>
				<stop  offset="0.6292" style="stop-color:#232323"/>
				<stop  offset="0.6919" style="stop-color:#3D3D3D"/>
				<stop  offset="0.7722" style="stop-color:#686868"/>
				<stop  offset="0.8671" style="stop-color:#A3A3A3"/>
				<stop  offset="0.973" style="stop-color:#EDEDED"/>
				<stop  offset="0.9975" style="stop-color:#FFFFFF"/>
			</linearGradient>
			
				<path style="mask:url(#SVGID_00000121255536669440434440000005017758314352678317_);fill:url(#SVGID_00000089551725179664485790000005242393193040003993_);" d="
				M492.696,373.016c-0.728-5.858-2.056-13.647-3.6-19.344c-1.944-7.177-5.064-16.617-7.869-23.504
				c-2.295-5.637-6.085-12.844-9.088-18.138c-3.382-5.963-8.634-13.496-12.899-18.864c-4.268-5.372-10.648-11.964-15.47-16.845
				c-2.812-2.847-6.886-6.324-10.074-8.742c-5.082-3.854-12.103-8.671-17.458-12.136c-0.271-0.163-0.544-0.322-0.817-0.48
				c-0.071-0.041-0.142-0.083-0.213-0.124c-2.942-1.712-6.581-3.71-9.426-5.175c-2.532-1.304-5.991-2.877-8.594-4.031
				c-2.673-1.185-6.31-2.597-9.056-3.601c-2.51-0.918-5.884-2.074-8.456-2.802c-2.314-0.656-5.386-1.593-7.735-2.114
				c-2.291-0.509-5.336-1.235-7.64-1.686c-2.238-0.439-5.24-0.936-7.496-1.279c-2.191-0.333-5.122-0.729-7.331-0.901
				c-4.293-0.334-10.026-0.713-14.331-0.784c-2.142-0.036-5,0.013-7.141,0.086c-2.148,0.074-5.007,0.281-7.153,0.404
				c-2.207,0.126-5.14,0.462-7.332,0.748c-2.28,0.297-5.315,0.739-7.581,1.134c-2.275,0.397-5.285,1.051-7.549,1.504
				c-2.317,0.463-5.351,1.331-7.641,1.914c-2.636,0.672-6.094,1.785-8.667,2.669c-2.905,0.997-6.744,2.431-9.585,3.598
				c-5.263,2.162-12.081,5.528-17.077,8.251c-3.598,1.961-8.218,4.892-11.638,7.148c-2.618,1.727-5.953,4.257-8.476,6.12
				c-4.101,3.027-9.229,7.524-12.875,11.086c-4.434,4.332-10.124,10.362-13.968,15.226c-4.369,5.528-9.783,13.249-13.343,19.331
				c-5.99,10.232-9.051,17.845-11.076,22.883c-2.447,6.087-4.811,14.54-6.517,20.874c-1.975,7.337-3.04,17.476-3.914,25.024
				c-0.444,3.834-0.331,9-0.473,12.857h0c0.065,23.08,14.888,46.153,44.651,64.066c61.324,36.908,162.852,37.935,226.771,2.294
				c32.896-18.342,49.419-42.823,49.349-67.295C493.776,386.564,493.414,378.794,492.696,373.016z"/>
		</g>
	</mask>
	
		<linearGradient id="SVGID_00000058553175040739475570000008601271997877649854_" gradientUnits="userSpaceOnUse" x1="206.2088" y1="405.4318" x2="488.1771" y2="309.1552">
		<stop  offset="0" style="stop-color:#29CE1F"/>
		<stop  offset="0.5409" style="stop-color:#1ACE19"/>
		<stop  offset="0.5919" style="stop-color:#18CE18"/>
		<stop  offset="0.6387" style="stop-color:#22D11C"/>
		<stop  offset="0.7171" style="stop-color:#3CD825"/>
		<stop  offset="0.8177" style="stop-color:#66E535"/>
		<stop  offset="0.9352" style="stop-color:#A0F54A"/>
		<stop  offset="0.9975" style="stop-color:#C2FF57"/>
	</linearGradient>
	<path style="fill:url(#SVGID_00000058553175040739475570000008601271997877649854_);" d="M492.696,373.016
		c-0.728-5.858-2.056-13.647-3.6-19.344c-1.944-7.177-5.064-16.617-7.869-23.504c-2.295-5.637-6.085-12.844-9.088-18.138
		c-3.382-5.963-8.634-13.496-12.899-18.864c-4.268-5.372-10.648-11.964-15.47-16.845c-2.812-2.847-6.886-6.324-10.074-8.742
		c-5.082-3.854-12.103-8.671-17.458-12.136c-0.271-0.163-0.544-0.322-0.817-0.48c-0.071-0.041-0.142-0.083-0.213-0.124
		c-2.942-1.712-6.581-3.71-9.426-5.175c-2.532-1.304-5.991-2.877-8.594-4.031c-2.673-1.185-6.31-2.597-9.056-3.601
		c-2.51-0.918-5.884-2.074-8.456-2.802c-2.314-0.656-5.386-1.593-7.735-2.114c-2.291-0.509-5.336-1.235-7.64-1.686
		c-2.238-0.439-5.24-0.936-7.496-1.279c-2.191-0.333-5.122-0.729-7.331-0.901c-4.293-0.334-10.026-0.713-14.331-0.784
		c-2.142-0.036-5,0.013-7.141,0.086c-2.148,0.074-5.007,0.281-7.153,0.404c-2.207,0.126-5.14,0.462-7.332,0.748
		c-2.28,0.297-5.315,0.739-7.581,1.134c-2.275,0.397-5.285,1.051-7.549,1.504c-2.317,0.463-5.351,1.331-7.641,1.914
		c-2.636,0.672-6.094,1.785-8.667,2.669c-2.905,0.997-6.744,2.431-9.585,3.598c-5.263,2.162-12.081,5.528-17.077,8.251
		c-3.598,1.961-8.218,4.892-11.638,7.148c-2.618,1.727-5.953,4.257-8.476,6.12c-4.101,3.027-9.229,7.524-12.875,11.086
		c-4.434,4.332-10.124,10.362-13.968,15.226c-4.369,5.528-9.783,13.249-13.343,19.331c-5.99,10.232-9.051,17.845-11.076,22.883
		c-2.447,6.087-4.811,14.54-6.517,20.874c-1.975,7.337-3.04,17.476-3.914,25.024c-0.444,3.834-0.331,9-0.473,12.857h0
		c0.065,23.08,14.888,46.153,44.651,64.066c61.324,36.908,162.852,37.935,226.771,2.294c32.896-18.342,49.419-42.823,49.349-67.295
		C493.776,386.564,493.414,378.794,492.696,373.016z"/>
	<g>
		
			<linearGradient id="SVGID_00000061450061353150867750000008399031125159156912_" gradientUnits="userSpaceOnUse" x1="355.247" y1="328.6663" x2="414.2225" y2="249.0494">
			<stop  offset="0.1595" style="stop-color:#074C07"/>
			<stop  offset="0.3211" style="stop-color:#0E800E"/>
			<stop  offset="0.4751" style="stop-color:#13AA13"/>
			<stop  offset="0.5953" style="stop-color:#17C417"/>
			<stop  offset="0.6668" style="stop-color:#18CE18"/>
			<stop  offset="0.7251" style="stop-color:#32D622"/>
			<stop  offset="0.8499" style="stop-color:#75E93B"/>
			<stop  offset="0.9811" style="stop-color:#C2FF57"/>
		</linearGradient>
		<path style="fill:url(#SVGID_00000061450061353150867750000008399031125159156912_);" d="M429.155,275.649
			c11.484,16.489,4.203,31.32-16.264,33.126c-20.467,1.806-46.368-10.097-57.853-26.586c-11.484-16.489-4.203-31.32,16.264-33.126
			C391.769,247.257,417.671,259.16,429.155,275.649z"/>
	</g>
	<g>
		<path style="fill:#FF553D;" d="M407.526,352.034c0,0.529,0.041,1.027,0.152,1.373c0,0.02,0.01,0.03,0.01,0.051
			c0.051,0.143,0.112,0.254,0.193,0.336c0.061,0.061,0.143,0.132,0.244,0.203c0.397,0.305,1.078,0.691,1.881,0.834
			c0.295,0.051,0.6,0.071,0.915,0.041h0.01c0.051,0,0.112,0,0.173-0.02h0.01c0.336-0.041,0.681-0.142,1.017-0.315
			c0.071-0.041,0.153-0.082,0.234-0.132h0.01c0.081-0.041,0.163-0.092,0.244-0.142c0,0,0.011,0,0.011-0.01
			c1.525-0.936,3.305-2.715,4.067-4.281c0.112-0.234,0.203-0.468,0.264-0.702c0.081-0.284,0.142-0.579,0.173-0.884
			c0.01-0.071,0.02-0.153,0.02-0.214c0.031-0.254,0.041-0.488,0.041-0.712c0-0.183,0-0.356-0.02-0.519
			c0-0.102-0.01-0.203-0.03-0.305c-0.031-0.336-0.092-0.661-0.183-0.966c0-0.01-0.01-0.03-0.01-0.03
			c-0.173-0.671-0.468-1.23-0.854-1.556c-0.326-0.275-0.702-0.386-1.19-0.325c-1.006,0.122-2.471,1.007-4.941,2.685
			c-1.027,0.702-1.993,1.911-2.298,3.01c-0.01,0.03-0.02,0.061-0.03,0.091c-0.041,0.173-0.061,0.346-0.071,0.518
			c0,0.234-0.02,0.508-0.031,0.783v0.01C407.526,351.241,407.516,351.648,407.526,352.034z"/>
		<path style="fill:#FF3717;" d="M409.539,351.088v0.336l0.01,0.01c-0.01,0.02-0.01,0.041,0,0.071
			c0.01,0.742,0.132,1.434,0.366,1.973v0.01l0.01,0.01c0.193,0.468,0.478,0.813,0.864,0.986c0.407,0.183,0.925,0.183,1.566-0.092
			v-0.01c0.081-0.03,0.173-0.071,0.264-0.122c0,0,0.011,0,0.011-0.01c1.769-0.915,3.335-2.593,4.067-4.281
			c0.112-0.234,0.203-0.468,0.264-0.702c0.092-0.274,0.142-0.549,0.173-0.823v-0.061c0.01-0.071,0.02-0.153,0.02-0.214
			c0.031-0.254,0.041-0.488,0.041-0.712c0-0.183,0-0.356-0.02-0.519c0-0.091,0-0.193-0.02-0.274v-0.01
			c-0.03-0.397-0.102-0.722-0.193-0.986c0-0.01-0.01-0.03-0.01-0.03c-0.153-0.427-0.366-0.671-0.59-0.712
			c-0.122-0.02-0.285-0.01-0.488,0.02c-0.854,0.142-2.298,0.763-3.294,1.607C411.36,347.591,409.58,348.78,409.539,351.088z"/>
		<path style="fill:#299729;" d="M217.952,373.774l147.61,86.074c0,0,13.52,6.828,26.921,7.709
			c13.4,0.881,25.042-5.082,33.177-8.796c8.135-3.715,26.86-14.492,30.749-18.125c3.889-3.634,14.546-11.302,4.001-21.635
			c-10.544-10.334-183.091-99.887-197.072-100.454c-13.981-0.567-56.599,35.191-57.675,41.409
			C204.639,365.878,210.076,369.227,217.952,373.774z"/>
		<g>
			<polygon style="fill:#292929;" points="349.731,437.906 361.323,430.644 388.817,447.953 394.647,387.843 231.392,329.395 
				229.394,361.491 234.356,368.827 246.83,360.227 300.168,396.525 			"/>
			<polygon style="fill:#FFCC00;" points="388.396,450.131 385.763,453.505 373.019,437.121 375.651,433.746 			"/>
			<polygon style="fill:#FFCC00;" points="387.132,450.861 384.499,454.235 371.754,437.85 374.387,434.476 			"/>
			<polygon style="fill:#333333;" points="367.643,416.183 354.944,423.513 373.934,456.259 386.667,448.905 382.576,426.384 			"/>
			<path style="fill:#A89560;" d="M377.721,447.721c0,8.51-6.012,11.937-13.427,7.656c-7.416-4.282-13.427-14.651-13.427-23.161
				c0-8.51,6.012-11.937,13.427-7.655C371.71,428.842,377.721,439.212,377.721,447.721z"/>
			<path style="fill:#333333;" d="M275.197,373.93c0,8.51-6.012,11.937-13.427,7.656c-7.416-4.282-13.427-14.651-13.427-23.161
				c0-8.51,6.012-11.937,13.427-7.656C269.185,355.052,275.197,365.421,275.197,373.93z"/>
			<polygon style="fill:#333333;" points="252.476,349.692 239.777,357.021 258.767,389.768 271.5,382.413 267.409,359.893 			"/>
			<g>
				<path style="fill:#F00000;" d="M460.311,422.219l-0.613,0.814l0.653,0.003h0.566l-0.484,1.693l-2.473,0.3l-0.139-0.077
					l-9.994-5.468l-0.521-0.258l-1.505-0.869v-7.31c0-9.954-7.032-22.084-15.707-27.094c-8.678-5.008-15.712-0.998-15.712,8.956
					v7.307l-83.408-48.154l-0.34-0.224v-7.283c0-9.954-7.032-22.086-15.707-27.094c-8.675-5.008-15.71-0.998-15.71,8.956v4.857
					l-0.209-0.137c0,0-0.685-0.439-1.818-1.169c-4.884-3.158-18.054-11.777-19.973-14.086c-2.366-2.848-4.132-9.564-4.132-9.564
					l0.06-0.454h0.003l0.941-7.233l2.294-1.266l1.075-8.02l-1.075-2.101l2.782-2.551l0.201-4.236l1.9-0.509l13.298,4.08
					c0,0,12.206,3.357,26.324,7.066c14.121,3.712,25.882,10.754,31.938,14.086c6.058,3.335,14.766,8.032,25.696,16.976
					c10.93,8.944,21.299,19.928,26.496,26.138c5.194,6.205,10.93,13.013,10.93,13.013s9.532,7.312,19.283,14.051
					c9.746,6.739,14.726,13.783,19.35,18.18c4.623,4.395,7.725,9.043,7.725,9.043l0.027,0.425l0.67,14.227l-0.536,2.12
					L460.311,422.219z"/>
				<path style="fill:#FF553D;" d="M462.332,403.007l-1.873-1.755l-18.6-15.18c0,0-19.138-16.576-32.614-25.054
					c-13.474-8.48-75.439-45.818-88.842-53.679c-13.405-7.863-25.984-14.262-25.984-14.262l-15.255-8.383l0.202-4.236l1.899-0.508
					l13.298,4.08c0,0,12.193,3.256,26.288,7.056c4.467,1.204,8.357,2.086,12.27,3.735c8.435,3.555,15.568,8.085,19.705,10.361
					c6.057,3.334,14.766,8.032,25.696,16.975c10.93,8.943,21.298,19.929,26.495,26.137c5.195,6.207,10.93,13.014,10.93,13.014
					s9.532,7.312,19.282,14.051c9.747,6.738,14.727,13.783,19.35,18.179c4.623,4.396,7.724,9.044,7.724,9.044L462.332,403.007z"/>
				<g>
					<path style="fill:#DA0600;" d="M408.089,393.838l-68.447-41.014l-14.251-33.17l-3.419-11.081l0.661-4.016l0.909,0.15
						l-0.626,3.802l3.338,10.827l14.116,32.85l67.022,40.16l0.676-4.264l0.004-3.563c0.011-0.084,1.139-8.501,0.928-14.6
						c-0.191-5.521-0.213-8.284-0.215-8.81l-2.187-5.228l0.85-0.356l2.258,5.398v0.092c0,0.027,0.003,2.743,0.215,8.871
						c0.207,5.988-0.855,14.151-0.931,14.725l-0.006,3.578L408.089,393.838z"/>
				</g>
				<path style="fill:#AE9C55;" d="M313.674,291.406c0,0-1.236,3.376-1.263,3.515c-0.027,0.139,4.65,5.923,4.65,5.923l93.942,59.049
					l1.004-0.49c0,0-13.951-16.592-23.842-26.744c-9.891-10.152-22.686-18.567-29.065-22.168
					c-6.379-3.601-23.188-12.697-28.993-14.445C324.299,294.298,313.674,291.406,313.674,291.406z"/>
				<polygon style="fill:#292929;" points="330.105,296.046 323.234,304.724 328.682,308.149 335.239,297.974 				"/>
				<polygon style="fill:#F78459;" points="441.858,386.071 439.529,386.7 445.764,394.084 452.61,399.434 454.294,399.378 
					458.917,403.076 460.458,401.251 450.782,392.416 				"/>
				<polygon style="fill:#F00000;" points="462.375,403.672 460.691,406.464 460.458,412.563 463.003,417.235 				"/>
				<polygon style="fill:#F78459;" points="276.383,287.245 277.602,288.607 291.409,295.04 294.133,294.68 294.42,293.077 
					284.93,284.332 280.942,283.115 279.27,283.015 				"/>
				<path style="fill:#292929;" d="M299.008,331.138c0,0-0.686-0.438-1.817-1.17c-4.883-3.157-18.054-11.776-19.974-14.086
					c-2.365-2.846-4.13-9.563-4.13-9.563l0.058-0.455l0.002,0.001l6.938,5.218l3.512,8.277L299.008,331.138z"/>
				<polygon style="fill:#FF553D;" points="274.09,298.632 275.738,300.406 296.516,313.825 293.434,309.743 282.844,302.271 
					276.885,298.765 276.383,298.126 276.383,297.365 				"/>
				<path style="fill:#FF553D;" d="M333.268,339.65c0,0,75.315,49.158,76.82,49.904c1.505,0.746,0.43-2.219-3.225-5.008
					c-3.655-2.789-52.091-32.727-61.606-38.714C335.741,339.844,333.268,339.65,333.268,339.65z"/>
				<polygon style="fill:#F00000;" points="460.1,410.379 451.965,402.111 445.854,397.651 455.423,404.595 				"/>
				
					<ellipse transform="matrix(0.8633 -0.5047 0.5047 0.8633 -144.0812 272.0103)" style="fill:#292929;" cx="430.092" cy="401.98" rx="10.929" ry="18.931"/>
				<path style="fill:#292929;" d="M328.353,343.241c0,8.51-6.012,11.937-13.428,7.656c-7.416-4.282-13.428-14.651-13.428-23.161
					s6.012-11.937,13.428-7.656C322.341,324.362,328.353,334.731,328.353,343.241z"/>
				<g>
					<path style="fill:#FF553D;" d="M447.826,412.217v7.267l-0.52-0.258l-1.505-0.869v-7.309c0-9.954-7.031-22.085-15.708-27.094
						c-8.677-5.009-15.71-0.999-15.71,8.955v7.309l-2.023-1.168v-7.309c0-11.237,7.939-15.766,17.734-10.111
						C439.887,387.285,447.826,400.981,447.826,412.217z"/>
					<path style="fill:#FF553D;" d="M332.66,345.726v7.309l-1.686-0.973l-0.34-0.223v-7.282c0-9.954-7.034-22.086-15.708-27.094
						c-8.676-5.009-15.71-0.999-15.71,8.955v4.858l-0.209-0.138c0,0-0.686-0.438-1.817-1.17v-4.72
						c0-11.237,7.941-15.764,17.736-10.109C324.719,320.792,332.66,334.49,332.66,345.726z"/>
				</g>
			</g>
			<polygon style="fill:#292929;" points="270.985,329.676 278.979,323.744 291.721,315.157 307.704,305.929 319.928,300.102 
				332.075,295.311 300.46,287.514 295.669,287.418 285.394,291.261 274.108,295.97 254.551,307.261 244.241,315.02 
				240.445,318.501 240.445,320.303 			"/>
			<polygon style="fill:#37464E;" points="329.31,295.498 328.863,295.675 319.592,299.328 316.878,300.622 307.312,305.182 
				291.273,314.44 278.508,323.045 270.826,328.747 260.981,325.726 241.289,319.678 241.289,318.873 244.782,315.671 
				255.018,307.967 274.483,296.728 285.718,292.038 295.811,288.266 298.104,288.312 300.35,288.355 313.599,291.621 
				321.585,293.593 			"/>
			<polygon style="fill:#F00000;" points="461.118,414.119 460.251,420.97 460.311,422.219 460.328,422.586 460.351,423.036 
				460.433,424.729 455.904,431.075 447.474,438.624 427.67,450.058 411.528,456.697 398.9,459.135 394.647,456.168 
				395.436,454.237 402.421,437.156 445.801,412.113 462.305,402.583 			"/>
			<path style="fill:#FF553D;" d="M415.948,361.31c0,0,26.038,19.113,33.066,24.761c7.027,5.649,10.428,9.487,11.707,12.495
				c1.28,3.008,1.611,6.841,1.611,6.841l-26.664-9.373L415.948,361.31z"/>
			<path style="fill:#FF553D;" d="M462.304,402.583l-7.198,8.095l-5.285,4.45l-20.712,11.96l-11.614,5.306l-15.074,4.762
				l-39.069-28.298l-13.195-9.558c-0.004-0.004-0.008-0.004-0.008-0.004l65.8-37.986c0,0,15.495,11.121,26.671,19.924
				c6.224,4.901,11.618,10.965,15.184,15.378C460.635,400.122,462.304,402.583,462.304,402.583z"/>
			<path style="fill:#FF382E;" d="M462.304,402.583l-7.198,8.095l-5.285,4.45l-20.712,11.96l-11.614,5.306l-15.074,4.762l0.03,0.426
				l-1.875-1.757l-20.569-14.042c0,0-23.081-14.299-36.558-22.777c-0.068-0.042-0.139-0.089-0.211-0.131l-1.062-3.599l3.03,2.604
				c0,0,9.246,5.601,18.146,10.978c6.911,4.172,13.607,8.213,15.63,9.402c1.724,1.02,4.1,2.149,6.696,3.237
				c4.362,1.829,9.351,3.523,12.925,4.315c5.702,1.264,17.109,1.155,21.008,0.603c3.898-0.556,25.757-12.09,27.974-13.877
				c2.208-1.795,8.795-9.693,9.693-13.098c0.274-1.041,0.434-1.997,0.527-2.828C460.635,400.122,462.304,402.583,462.304,402.583z"
				/>
			<path style="fill:#FF3717;" d="M421.898,428.824c-0.627-2.846-60.987-31.969-60.952-32.11l0.747-0.202
				c0,0,49.365,23.074,56.411,28.503C420.947,426.808,422.162,427.652,421.898,428.824z"/>
			<polygon style="fill:#FF382E;" points="449.356,413.876 448.429,411.558 410.301,369.595 411.036,369.211 448.669,410.635 			"/>
			<path style="fill:#F00000;" d="M456.357,405.75c0,0-5.366,7.198-7.157,8.616c-3.346,2.65-15.735,9.85-20.724,12.047
				c-4.989,2.198-10.158,4.446-19.16,4.122c1.398,2.121,8.351,3.611,8.351,3.611l20.029-10.346l14.774-8.897L456.357,405.75z"/>
			<polygon style="fill:#37464E;" points="415.948,361.31 408.281,370.322 403.243,375.105 375.505,391.119 365.118,395.242 
				350.149,399.298 315.458,358.568 378.523,322.158 			"/>
			<path style="fill:#292929;" d="M414.22,359.502l-2.848-2.979l-0.794,1.699c0.668,1.137-1.855,6.618-7.052,10.439
				c-5.198,3.821-28.937,17.59-34.556,20.012c-5.619,2.421-12.051,5.084-17.93,4.876c-1.411-0.05-2.554,1.37-3.087,3.169
				l2.196,2.579l14.969-4.056l10.387-4.123l27.738-16.014l5.039-4.782l7.667-9.013L414.22,359.502z"/>
			<path style="fill:#566770;" d="M328.863,295.675l-9.271,3.654l-2.714,1.294c-0.851-1.054-4.467-5.554-4.467-5.702
				c0.021-0.118,0.914-2.558,1.188-3.3c0.046-0.135,0.076-0.215,0.076-0.215s3.691,1.003,7.91,2.187
				C324.042,294.28,326.676,295.03,328.863,295.675z"/>
			<path style="fill:#566770;" d="M410.747,360.54l0.254-0.646l-43.621-27.417c5.078-3.721,9.464-7.774,9.464-7.774
				c3.447,2.786,6.903,5.849,10.063,9.094C396.798,343.949,410.747,360.54,410.747,360.54z"/>
			<path style="fill:#63747D;" d="M408.764,356.037l-0.236-0.031l-10.381-2.635l-22.856,14.454l-3.644,9.371l-23.186,12.531
				c0.003,0.004,0.006,0.008,0.009,0.012c0.116,0.147,0.23,0.291,0.343,0.431c0.002,0.003,0.005,0.006,0.008,0.009
				c0.456,0.571,0.879,1.086,1.272,1.543c0.004,0.005,0.009,0.01,0.013,0.015c0.073,0.085,0.144,0.165,0.214,0.246
				c0.031,0.035,0.062,0.07,0.092,0.104c0.061,0.069,0.12,0.134,0.18,0.2c0.038,0.042,0.077,0.085,0.115,0.126
				c0.055,0.06,0.109,0.116,0.162,0.173c0.04,0.042,0.079,0.084,0.118,0.125c0.051,0.053,0.1,0.103,0.15,0.153
				c0.041,0.041,0.081,0.081,0.121,0.12c0.046,0.045,0.092,0.089,0.137,0.132c0.041,0.039,0.082,0.077,0.123,0.114
				c0.042,0.039,0.084,0.077,0.126,0.113c0.041,0.036,0.082,0.071,0.123,0.105c0.039,0.033,0.078,0.065,0.116,0.096
				c0.042,0.034,0.083,0.065,0.124,0.095c0.035,0.026,0.07,0.053,0.105,0.078c0.043,0.03,0.084,0.057,0.126,0.085
				c0.031,0.02,0.062,0.042,0.092,0.06c0.046,0.028,0.09,0.052,0.135,0.076c0.024,0.013,0.049,0.028,0.073,0.04
				c0.068,0.034,0.831,0.272,0.895,0.296c3.202-0.67,6.037-1.185,7.812-1.865c0,0,3.665-1.049,8.307-3.086
				c5.414-2.377,12.303-6.021,18.502-9.715c12.687-7.559,16.045-10.635,16.045-10.635l5.753-6.126
				c0.572-1.115,0.859-2.323,0.897-3.535C410.278,358.503,409.603,357.39,408.764,356.037z"/>
			<path style="fill:#1C2121;" d="M347.953,344.14l-16.883,5.414l-14.83,8.562c2.306,3.005,6.493,8.14,13.07,15.106
				c11.004,11.658,16.915,22.161,22.814,24.9c0.242,0.112,0.555,0.243,0.93,0.388l12.065-3.269l10.387-4.123l9.288-5.363
				C363.837,357.06,347.953,344.14,347.953,344.14z"/>
			<polygon style="fill:#FF553D;" points="332.075,295.311 319.928,300.102 307.704,305.929 291.721,315.157 278.979,323.744 
				269.011,331.721 315.458,358.568 328.526,353.407 343.239,345.903 362.949,334.523 369.648,329.665 378.523,322.158 
				358.779,309.13 			"/>
			<polygon style="fill:#FF553D;" points="279.366,280.458 268.181,284.218 257.242,288.878 231.989,303.458 222.799,310.42 
				216.617,316.686 235.749,322.808 244.241,315.02 254.551,307.261 274.108,295.97 285.394,291.261 299.575,285.958 			"/>
			<g>
				<path style="fill:#F00000;" d="M402.451,437.581l-1.301,15.367l-0.377,1.485l-0.161,0.636l-2.446,2.374h1.219l-0.484,1.693
					l-2.473,0.3l-13.251-2.262l-0.521-0.258l-1.058-0.611l-0.447-0.258l-1.147-7.009c0-9.954-7.032-22.086-15.707-27.094
					c-8.678-5.011-15.712-0.998-15.712,8.954l1.147,7.009l-83.408-48.155l-0.34-0.223l-1.147-6.982
					c0-9.954-7.032-22.086-15.707-27.094c-8.676-5.011-15.71-0.998-15.71,8.954l1.147,4.559l-0.209-0.137
					c0,0-0.688-0.44-1.818-1.169c-4.884-3.158-14.403-8.327-16.325-10.636c-2.364-2.848-4.886-11.952-4.886-11.952l0.06-0.457
					l0.003,0.003l0.941-7.235l2.294-1.266l1.075-8.018l-1.075-2.103l1.028-4.631l0.963-4.675l1.9-0.509l12.22,4.703
					c0,0,12.832,2.711,26.95,6.421c14.121,3.712,26.019,10.957,32.075,14.289c6.059,3.335,14.766,8.032,25.696,16.976
					c10.93,8.944,18.565,21.507,23.762,27.715c5.194,6.207,10.93,13.016,10.93,13.016s9.532,7.312,19.283,14.051
					c9.746,6.739,20.643,10.366,25.264,14.764c4.623,4.397,7.724,9.043,7.724,9.043L402.451,437.581z"/>
				<path style="fill:#FF553D;" d="M266.834,382.566c-1.684-20.611-2.305-25.136-11.802-31.874
					c-9.497-6.739-16.512-4.007-19.615-1.338c-3.104,2.669-4.025,8.585-4.025,13.883c3.031-7.614,2.268-9.414,7.957-11.09
					c5.689-1.676,11.462,3.414,11.462,3.414l6.332,5.539l5.411,8.359L266.834,382.566z"/>
				<path style="fill:#FF553D;" d="M269.216,378.001c0,0,73.568,48.796,75.074,49.542c1.505,0.746,0.226-6.373-3.43-9.162
					c-3.655-2.789-47.676-28.94-57.191-34.927S269.216,378.001,269.216,378.001z"/>
				<path style="fill:#FF553D;" d="M402.45,437.582l-1.875-1.757l-20.569-14.042c0,0-23.081-14.299-36.558-22.777
					c-0.068-0.042-0.139-0.089-0.211-0.131c-13.894-8.727-75.298-45.723-88.632-53.549c-13.405-7.859-25.984-14.261-25.984-14.261
					l-12.967-9.701l0.961-4.678l1.901-0.506l12.221,4.699c0,0,12.832,2.714,26.949,6.422c14.122,3.713,26.018,10.961,32.078,14.29
					c6.056,3.333,14.766,8.032,25.694,16.975c10.931,8.947,20.536,20.371,25.732,26.579c5.196,6.207,8.959,14.151,8.959,14.151
					s0.004,0,0.008,0.004c0.35,0.19,11.648,6.275,21.248,12.912c5.162,3.569,10.093,6.583,14.273,9.284
					c3.717,2.398,6.844,4.547,9.018,6.616c4.623,4.395,7.724,9.044,7.724,9.044L402.45,437.582z"/>
				<path style="fill:#F00000;" d="M297.272,364.052l-1.592,4.848c0,0-2.336,8.396-2.336,12.653c0,4.256,0.905,7.827,0.905,7.827
					l-0.981,4.156l0.529,8.447L297.272,364.052z"/>
				<g>
					<path style="fill:#6D0103;" d="M297.731,373.184c-0.585,0.711-0.923,1.902-0.665,2.581c0.281,0.741,5.424,3.875,5.939,4.001
						c0.515,0.126,0.898-1.296,0.823-1.734C303.754,377.594,297.731,373.184,297.731,373.184z"/>
					<g>
						<path style="fill:#B1282F;" d="M301.969,375.375l-3.508-2.231c-0.454-0.289-0.841-0.09-0.864,0.445l-0.008,0.186
							c-0.023,0.534,0.327,1.202,0.781,1.49l4.825,3.069c0.543,0.345,0.855-0.241,0.502-0.942l0,0
							C303.262,376.529,302.637,375.8,301.969,375.375z"/>
						<path style="fill:#383838;" d="M298.995,374.574c-0.012,0.288-0.22,0.395-0.465,0.239c-0.245-0.155-0.433-0.515-0.42-0.803
							c0.012-0.288,0.221-0.395,0.465-0.239C298.819,373.927,299.007,374.286,298.995,374.574z"/>
					</g>
				</g>
				<g>
					<path style="fill:#6D0103;" d="M260.646,349.956c-0.585,0.711-0.923,1.902-0.665,2.581c0.281,0.74,5.424,3.875,5.939,4.001
						s0.898-1.296,0.823-1.734C266.668,354.366,260.646,349.956,260.646,349.956z"/>
					<g>
						<path style="fill:#B1282F;" d="M264.884,352.148l-3.508-2.231c-0.454-0.289-0.841-0.09-0.864,0.445l-0.008,0.186
							c-0.023,0.534,0.327,1.202,0.781,1.491l4.825,3.069c0.543,0.345,0.855-0.241,0.501-0.942l0,0
							C266.176,353.302,265.551,352.572,264.884,352.148z"/>
						<path style="fill:#383838;" d="M261.91,351.346c-0.012,0.288-0.221,0.395-0.465,0.239c-0.244-0.155-0.433-0.515-0.42-0.803
							c0.012-0.288,0.221-0.395,0.465-0.239C261.734,350.699,261.922,351.058,261.91,351.346z"/>
					</g>
				</g>
				<path style="fill:#FF382E;" d="M394.696,428.113c-2.174-2.069-5.301-4.218-9.018-6.616c-2.596-1.087-4.973-2.217-6.696-3.237
					c-2.023-1.188-8.719-5.23-15.63-9.402c-8.9-5.377-18.146-10.978-18.146-10.978l-3.03-2.604l1.062,3.599
					c0.072,0.042,0.143,0.089,0.211,0.131c13.477,8.479,36.558,22.777,36.558,22.777l20.569,14.042l1.875,1.757l-0.03-0.426
					C402.421,437.156,399.319,432.508,394.696,428.113z"/>
				<g>
					<path style="fill:#DA0600;" d="M342.291,431.827l-68.447-41.014l-14.251-33.17l-3.419-11.081l0.661-4.016l0.909,0.15
						l-0.626,3.802l3.338,10.827l14.116,32.85l67.022,40.16l0.676-4.264l0.004-3.563c0.011-0.084,1.139-8.5,0.928-14.6
						c-0.191-5.521-0.213-8.284-0.215-8.809l-2.187-5.229l0.85-0.355l2.258,5.398v0.092c0,0.027,0.003,2.742,0.215,8.87
						c0.207,5.99-0.856,14.152-0.931,14.724l-0.006,3.578L342.291,431.827z"/>
				</g>
				<path style="fill:#292929;" d="M247.875,329.395c0,0-1.236,3.376-1.263,3.515c-0.027,0.139,4.65,5.923,4.65,5.923l93.942,59.049
					l1.003-0.49c0,0-11.217-18.17-21.108-28.323c-9.891-10.152-22.686-18.567-29.065-22.168
					c-6.379-3.601-23.188-12.697-28.993-14.445C261.235,330.708,247.875,329.395,247.875,329.395z"/>
				<path style="fill:#37464E;" d="M252.098,337.892c-1.648-2.04-3.406-4.248-4.107-5.173c0.177-0.496,0.453-1.258,0.719-1.989
					c3.146,0.336,13.238,1.49,17.973,2.915c5.847,1.76,23.143,11.177,28.741,14.337c7.582,4.28,19.67,12.597,28.786,21.953
					c7.396,7.591,15.644,19.876,19.178,25.339L252.098,337.892z"/>
				<polygon style="fill:#292929;" points="267.041,332.456 257.436,342.713 262.884,346.138 272.175,334.384 				"/>
				<polygon style="fill:#292929;" points="300.004,350.363 295.689,365.753 299.311,368.048 303.017,351.874 				"/>
				<polygon style="fill:#F00000;" points="380.004,421.783 377.674,422.412 383.91,429.795 390.755,435.146 392.44,435.09 
					399.035,437.649 400.576,435.824 388.927,428.127 				"/>
				<polygon style="fill:#F00000;" points="402.492,438.245 400.809,441.038 398.604,448.274 401.148,452.947 				"/>
				<polygon style="fill:#C3C2CE;" points="226.809,330.728 226.686,331.41 226.522,332.333 223.8,332.692 215.759,327.622 
					214.626,325.995 215.759,319.683 216.669,320.222 217.348,320.799 219.131,322.321 				"/>
				<path style="fill:#292929;" d="M234.356,368.827c0,0-0.686-0.438-1.817-1.17c-4.883-3.157-14.403-8.326-16.324-10.637
					c-2.365-2.846-4.886-11.952-4.886-11.952l0.058-0.455l0.002,0.001l2.897,4.457l4.658,7.978L234.356,368.827z"/>
				<path style="fill:#FF553D;" d="M212.332,337.381c-1.277-4.885,3.178-7.858,3.178-7.858s-0.884,5.831-0.884,6.591
					c0.837,1.038,5.087,7.094,12.908,12.122c1.555,2.373,3.184,3.577,3.184,3.577s-14.109-9.429-17.275-11.966
					C210.277,337.311,212.332,337.381,212.332,337.381z"/>
				<path style="fill:#292929;" d="M377.721,447.721c0,8.51-6.012,11.937-13.428,7.656c-7.416-4.281-13.428-14.651-13.428-23.16
					c0-8.51,6.012-11.937,13.428-7.656C371.71,428.842,377.721,439.212,377.721,447.721z"/>
				
					<ellipse transform="matrix(0.8633 -0.5047 0.5047 0.8633 -154.435 176.7864)" style="fill:#292929;" cx="249.127" cy="373.477" rx="10.929" ry="18.931"/>
				<g>
					<path style="fill:#CC0000;" d="M266.862,383.715l1.147,7.009l-1.686-0.973l-0.34-0.223l-1.147-6.982
						c0-9.954-7.034-22.086-15.708-27.094c-8.676-5.009-15.71-0.999-15.71,8.955l1.147,4.559l-0.209-0.138
						c0,0-0.686-0.438-1.817-1.17l-1.147-4.421c0-11.237,7.941-15.764,17.736-10.109
						C258.92,358.781,266.862,372.478,266.862,383.715z"/>
				</g>
			</g>
			<path style="fill:#FF553D;" d="M376.263,322.32c0,0,14.289,12.442,22.326,21.571c5.71,6.485,9.509,11.133,11.99,14.332
				c3.348,4.318-1.51,11.926-1.51,11.926l6.983-8.67l-15.712-18.5l-21.818-20.821L376.263,322.32z"/>
			<polygon style="fill:#FF553D;" points="240.445,318.501 240.445,320.303 270.985,329.676 278.979,323.744 269.309,331.601 
				235.417,322.476 			"/>
			<polygon style="fill:#FF553D;" points="331.094,295.698 331.243,295.311 300.46,287.514 295.287,287.411 299.663,285.707 
				332.407,295.249 			"/>
			<g>
				<g>
					<path style="fill:#393843;" d="M377.721,447.721c0,8.51-6.012,11.937-13.427,7.656c-7.416-4.282-13.427-14.651-13.427-23.161
						c0-8.51,6.012-11.937,13.427-7.655C371.71,428.842,377.721,439.212,377.721,447.721z"/>
					<path style="fill:#2D2C37;" d="M376.884,447.567c0,8.186-5.783,11.483-12.917,7.364c-7.134-4.119-12.917-14.094-12.917-22.279
						c0-8.186,5.783-11.483,12.917-7.365C371.101,429.406,376.884,439.381,376.884,447.567z"/>
					<g>
						<path style="fill:#504F58;" d="M375.06,446.553c0,6.971-4.925,9.779-11,6.272c-6.075-3.508-11-12.002-11-18.973
							c0-6.971,4.925-9.779,11-6.271C370.135,431.088,375.06,439.582,375.06,446.553z"/>
						<g>
							<path style="fill:#BABABE;" d="M374.716,445.827c0,6.607-4.668,9.268-10.425,5.944c-5.758-3.324-10.425-11.375-10.425-17.982
								c0-6.607,4.667-9.268,10.425-5.944C370.049,431.169,374.716,439.22,374.716,445.827z"/>
							
								<linearGradient id="SVGID_00000016795401693171619230000016986259781619496363_" gradientUnits="userSpaceOnUse" x1="-2596.5898" y1="451.7392" x2="-2582.8157" y2="427.8817" gradientTransform="matrix(-1 0 0 1 -2225.4121 0)">
								<stop  offset="0.273" style="stop-color:#ECEEF7"/>
								<stop  offset="0.7703" style="stop-color:#9C9AA8"/>
							</linearGradient>
							<path style="fill:url(#SVGID_00000016795401693171619230000016986259781619496363_);" d="M354.614,435.784
								c0.437,3.793,2.338,8.121,5.337,11.566c2.999,3.436,6.39,5.167,9.112,4.998c1.205-0.08,2.276-0.526,3.115-1.374
								c0.277-0.259,0.527-0.571,0.741-0.928c0.045-0.071,0.089-0.134,0.125-0.205c0.152-0.259,0.285-0.527,0.393-0.812
								c0.152-0.375,0.277-0.767,0.375-1.187c0.169-0.741,0.25-1.544,0.25-2.383c0-0.384-0.018-0.776-0.053-1.169
								c-0.009-0.205-0.036-0.402-0.063-0.598c-0.018-0.134-0.036-0.268-0.054-0.402c-0.018-0.125-0.036-0.25-0.062-0.375
								c-0.062-0.375-0.134-0.759-0.232-1.142c-0.045-0.187-0.089-0.366-0.143-0.553c-0.036-0.161-0.08-0.312-0.134-0.464
								c-0.062-0.223-0.134-0.455-0.214-0.678c-0.053-0.17-0.107-0.339-0.169-0.5c-0.259-0.723-0.562-1.437-0.91-2.151
								c-0.071-0.152-0.143-0.294-0.214-0.437c-0.25-0.482-0.509-0.955-0.794-1.428c-0.071-0.116-0.143-0.232-0.214-0.348
								c-0.134-0.214-0.277-0.428-0.41-0.634c-0.536-0.803-1.125-1.58-1.758-2.311c-0.321-0.366-0.643-0.714-0.973-1.035
								c-0.152-0.161-0.312-0.312-0.464-0.455c-0.045-0.045-0.098-0.089-0.143-0.134c-0.125-0.116-0.259-0.232-0.384-0.339
								c-1.553-1.348-3.141-2.258-4.641-2.713c-2.642-0.794-5.007-0.178-6.363,1.981c-0.045,0.062-0.089,0.134-0.125,0.196
								c-0.259,0.437-0.455,0.919-0.616,1.428C354.516,432.536,354.418,434.107,354.614,435.784z"/>
							<path style="fill:#393843;" d="M367.501,432.616l0.098,2.927c1.098-0.089,2.187-0.196,3.204-0.33
								c-0.134-0.214-0.277-0.428-0.41-0.634c-0.536-0.803-1.125-1.58-1.758-2.311c-0.321-0.366-0.643-0.714-0.973-1.035
								c-0.152-0.161-0.312-0.312-0.464-0.455c-0.045-0.045-0.098-0.089-0.143-0.134c-0.125-0.116-0.259-0.232-0.384-0.339
								c-1.553-1.348-3.141-2.258-4.641-2.713c-2.642-0.794-5.007-0.178-6.363,1.981
								C363.244,426.976,367.501,432.616,367.501,432.616z"/>
							<path style="fill:#393843;" d="M355.239,435.74c0,0,2.526,3.347,5.123,4.23c2.597,0.883,7.621,6.961,7.621,6.961
								l-0.384-11.388C361.664,435.99,355.239,435.74,355.239,435.74z"/>
							
								<linearGradient id="SVGID_00000124161461476473107670000002716100387818324360_" gradientUnits="userSpaceOnUse" x1="-2589.5059" y1="444.1689" x2="-2596.3008" y2="432.4" gradientTransform="matrix(-1 0 0 1 -2225.4121 0)">
								<stop  offset="0.2622" style="stop-color:#393843"/>
								<stop  offset="0.7811" style="stop-color:#23222E"/>
							</linearGradient>
							<path style="fill:url(#SVGID_00000124161461476473107670000002716100387818324360_);" d="M360.441,433.776
								c0.375,3.257,2.008,6.979,4.587,9.933c1.419,1.633,2.954,2.82,4.427,3.516v0.009c1.196,0.571,2.347,0.83,3.391,0.768
								c0.08,0,0.16-0.009,0.241-0.027c0.25-0.018,0.491-0.063,0.723-0.134c0.169-0.741,0.25-1.544,0.25-2.383
								c0-0.384-0.018-0.776-0.053-1.169c-0.009-0.205-0.036-0.402-0.063-0.598c-0.018-0.134-0.036-0.268-0.054-0.402
								c-0.018-0.125-0.036-0.25-0.062-0.375c-0.062-0.375-0.134-0.759-0.232-1.142c-0.045-0.187-0.089-0.366-0.143-0.553
								c-0.036-0.161-0.08-0.312-0.134-0.464c-0.062-0.223-0.134-0.455-0.214-0.678c-0.053-0.17-0.107-0.339-0.169-0.5
								c-0.259-0.723-0.562-1.437-0.91-2.151c-0.071-0.152-0.143-0.294-0.214-0.437c-0.25-0.482-0.509-0.955-0.794-1.428
								c-0.196-0.33-0.411-0.66-0.625-0.982c-0.536-0.803-1.125-1.58-1.758-2.311c-0.321-0.366-0.643-0.714-0.973-1.035
								c-0.152-0.161-0.312-0.312-0.464-0.455c-0.045-0.045-0.098-0.089-0.143-0.134c-0.125-0.116-0.259-0.232-0.384-0.339
								c-1.553-1.348-3.141-2.258-4.641-2.713c-0.294,0.286-0.562,0.625-0.794,1.026c-0.214,0.375-0.393,0.776-0.526,1.223
								c-0.187,0.634-0.303,1.33-0.339,2.07C360.343,432.509,360.37,433.134,360.441,433.776z"/>
							
								<linearGradient id="SVGID_00000018204103670476736460000013273583426706907030_" gradientUnits="userSpaceOnUse" x1="-2590.5518" y1="435.451" x2="-2596.0115" y2="437.0166" gradientTransform="matrix(-1 0 0 1 -2225.4121 0)">
								<stop  offset="0" style="stop-color:#ADAEB8"/>
								<stop  offset="0.0762" style="stop-color:#BABCC5"/>
								<stop  offset="0.1993" style="stop-color:#C9CBD4"/>
								<stop  offset="0.3421" style="stop-color:#D2D4DC"/>
								<stop  offset="0.5486" style="stop-color:#D5D7DF"/>
								<stop  offset="0.6619" style="stop-color:#C0C1CA"/>
								<stop  offset="1" style="stop-color:#868490"/>
							</linearGradient>
							<path style="fill:url(#SVGID_00000018204103670476736460000013273583426706907030_);" d="M367.942,439.245l-0.245,2.287
								v0.009L367.942,439.245l1.781-1.033l1.294-2.651c-0.196-0.33-0.411-0.66-0.625-0.982c-0.536-0.803-1.125-1.58-1.758-2.311
								c-0.321-0.366-0.643-0.714-0.973-1.035c-0.152-0.161-0.312-0.312-0.464-0.455c-0.045-0.045-0.098-0.089-0.143-0.134
								c-0.348,0.205-0.634,0.384-0.651,0.402l2.229,2.564L367.942,439.245z"/>
							
								<linearGradient id="SVGID_00000132060040191163168940000011048997993827404715_" gradientUnits="userSpaceOnUse" x1="-2593.0911" y1="445.7956" x2="-2597.5071" y2="444.0114" gradientTransform="matrix(-1 0 0 1 -2225.4121 0)">
								<stop  offset="0" style="stop-color:#ADAEB8"/>
								<stop  offset="0.0762" style="stop-color:#BABCC5"/>
								<stop  offset="0.1993" style="stop-color:#C9CBD4"/>
								<stop  offset="0.3421" style="stop-color:#D2D4DC"/>
								<stop  offset="0.5486" style="stop-color:#D5D7DF"/>
								<stop  offset="0.6619" style="stop-color:#C0C1CA"/>
								<stop  offset="1" style="stop-color:#868490"/>
							</linearGradient>
							<path style="fill:url(#SVGID_00000132060040191163168940000011048997993827404715_);" d="M367.942,439.245l-0.245,2.287
								v0.009l1.758,5.685l0.785,2.561c0.268,0.562-0.526,1.838-0.161,1.767c0.589-0.116,2.053-0.982,2.838-1.508
								c0.045-0.071,0.089-0.134,0.125-0.205c0.152-0.259,0.285-0.527,0.393-0.812c-0.018-0.134-0.063-0.268-0.134-0.41
								l-0.214-0.643l-3.213-9.46l-0.152-0.303L367.942,439.245z"/>
							
								<linearGradient id="SVGID_00000159440859320301073270000011780524749404367790_" gradientUnits="userSpaceOnUse" x1="-2585.6091" y1="436.7875" x2="-2588.1589" y2="432.3713" gradientTransform="matrix(-1 0 0 1 -2225.4121 0)">
								<stop  offset="0" style="stop-color:#ADAEB8"/>
								<stop  offset="0.0762" style="stop-color:#BABCC5"/>
								<stop  offset="0.1993" style="stop-color:#C9CBD4"/>
								<stop  offset="0.3421" style="stop-color:#D2D4DC"/>
								<stop  offset="0.5486" style="stop-color:#D5D7DF"/>
								<stop  offset="0.6619" style="stop-color:#C0C1CA"/>
								<stop  offset="1" style="stop-color:#868490"/>
							</linearGradient>
							<path style="fill:url(#SVGID_00000159440859320301073270000011780524749404367790_);" d="M357.199,430.748
								c0.15-0.079,0.353-0.061,0.573,0.065l8.53,3.611l0.239,0.137l0.009,4.579l-1.895-1.09l-7.069-2.771
								c-0.441-0.254-0.802-0.86-0.827-1.38c-0.048-1-1.59-1.218-1.399-2.083C355.395,431.652,357.086,430.808,357.199,430.748z"/>
							<g>
								<path style="fill:#DFDFE3;" d="M366.174,442.87l3.706-7.617c0.182-0.316,0.07-0.895-0.268-1.354
									c-0.351-0.477-0.723-0.942-1.115-1.391c-0.391-0.448-0.79-0.867-1.193-1.255c-0.388-0.373-0.813-0.409-0.994-0.093
									l-3.706,7.617L366.174,442.87z"/>
								<path style="fill:#DFDFE3;" d="M364.764,440.171l-0.009-4.579l-0.239-0.137l-8.53-3.611
									c-0.385-0.221-0.721-0.109-0.805,0.274c-0.19,0.865-0.257,1.813-0.209,2.813c0.025,0.52,0.386,1.126,0.827,1.38l7.069,2.771
									L364.764,440.171z"/>
								<path style="fill:#DFDFE3;" d="M371.491,450.815c0.249-0.194,0.258-0.681,0.025-1.168l-3.429-10.099l-0.145-0.304
									l-3.177,0.927l1.144,2.393l2.548,8.254c0.266,0.558,0.76,0.932,1.126,0.86C370.286,451.54,370.93,451.254,371.491,450.815z"
									/>
							</g>
						</g>
					</g>
				</g>
				<path style="fill:#4B4A4B;" d="M369.586,450.549c-0.041-0.045-0.092-0.113-0.136-0.205l-2.613-8.39l-3.258-3.736l-7.228-2.863
					c-0.105-0.06-0.269-0.322-0.277-0.478c-0.028-0.593-0.012-1.157,0.048-1.687l8.801,3.767l1.956-4.579
					c0.268,0.273,0.533,0.558,0.789,0.852c0.367,0.42,0.722,0.864,1.059,1.32c0.076,0.103,0.116,0.206,0.132,0.272l-2.013,4.678
					c0,0,3.686,10.636,3.689,10.643C370.244,450.325,369.927,450.461,369.586,450.549z"/>
			</g>
			<g>
				<g>
					<path style="fill:#2D2C37;" d="M262.555,381.229c0,8.51-6.012,11.937-13.428,7.656c-7.416-4.282-13.427-14.651-13.427-23.161
						c0-8.51,6.012-11.937,13.427-7.655C256.543,362.351,262.555,372.72,262.555,381.229z"/>
					<g>
						<path style="fill:#393843;" d="M262.554,381.229c0,8.51-6.012,11.937-13.428,7.656c-7.416-4.282-13.427-14.651-13.427-23.161
							c0-8.51,6.012-11.937,13.427-7.655C256.543,362.351,262.554,372.72,262.554,381.229z"/>
						<path style="fill:#2D2C37;" d="M261.717,381.075c0,8.186-5.783,11.483-12.917,7.364c-7.134-4.119-12.917-14.094-12.917-22.279
							c0-8.186,5.783-11.483,12.917-7.365C255.934,362.914,261.717,372.889,261.717,381.075z"/>
						<path style="fill:#504F58;" d="M259.893,380.061c0,6.971-4.925,9.779-11,6.272c-6.075-3.508-11-12.002-11-18.973
							c0-6.971,4.925-9.779,11-6.271C254.968,364.596,259.893,373.09,259.893,380.061z"/>
						<g>
							<path style="fill:#BABABE;" d="M259.549,379.335c0,6.607-4.668,9.268-10.425,5.944c-5.758-3.324-10.425-11.375-10.425-17.982
								c0-6.607,4.667-9.268,10.425-5.944C254.882,364.677,259.549,372.728,259.549,379.335z"/>
							
								<linearGradient id="SVGID_00000083050227025142923620000012809008078290803587_" gradientUnits="userSpaceOnUse" x1="-2481.4229" y1="385.2474" x2="-2467.6487" y2="361.3899" gradientTransform="matrix(-1 0 0 1 -2225.4121 0)">
								<stop  offset="0.273" style="stop-color:#ECEEF7"/>
								<stop  offset="0.7703" style="stop-color:#9C9AA8"/>
							</linearGradient>
							<path style="fill:url(#SVGID_00000083050227025142923620000012809008078290803587_);" d="M239.447,369.293
								c0.437,3.793,2.338,8.121,5.337,11.566c2.999,3.436,6.39,5.167,9.112,4.998c1.205-0.08,2.276-0.527,3.115-1.374
								c0.277-0.259,0.527-0.571,0.741-0.928c0.045-0.071,0.089-0.134,0.125-0.205c0.152-0.259,0.285-0.527,0.393-0.812
								c0.152-0.375,0.277-0.767,0.375-1.187c0.17-0.741,0.25-1.544,0.25-2.383c0-0.384-0.018-0.776-0.053-1.169
								c-0.009-0.205-0.036-0.402-0.063-0.598c-0.018-0.134-0.036-0.268-0.054-0.402c-0.018-0.125-0.036-0.25-0.062-0.375
								c-0.062-0.375-0.134-0.759-0.232-1.142c-0.045-0.187-0.089-0.366-0.143-0.553c-0.036-0.161-0.08-0.312-0.134-0.464
								c-0.062-0.223-0.134-0.455-0.214-0.678c-0.053-0.17-0.107-0.339-0.17-0.5c-0.259-0.723-0.562-1.437-0.91-2.151
								c-0.071-0.152-0.143-0.294-0.214-0.437c-0.25-0.482-0.509-0.955-0.794-1.428c-0.071-0.116-0.143-0.232-0.214-0.348
								c-0.134-0.214-0.277-0.428-0.411-0.634c-0.535-0.803-1.124-1.58-1.758-2.311c-0.321-0.366-0.643-0.714-0.973-1.035
								c-0.152-0.161-0.312-0.312-0.464-0.455c-0.045-0.045-0.098-0.089-0.143-0.134c-0.125-0.116-0.259-0.232-0.384-0.339
								c-1.553-1.348-3.141-2.258-4.641-2.713c-2.642-0.794-5.007-0.178-6.363,1.981c-0.045,0.062-0.089,0.134-0.125,0.196
								c-0.259,0.437-0.455,0.919-0.616,1.428C239.349,366.044,239.251,367.615,239.447,369.293z"/>
							<path style="fill:#393843;" d="M252.334,366.124l0.098,2.927c1.098-0.089,2.187-0.196,3.204-0.33
								c-0.134-0.214-0.277-0.428-0.411-0.634c-0.535-0.803-1.124-1.58-1.758-2.311c-0.321-0.366-0.643-0.714-0.973-1.035
								c-0.152-0.161-0.312-0.312-0.464-0.455c-0.045-0.045-0.098-0.089-0.143-0.134c-0.125-0.116-0.259-0.232-0.384-0.339
								c-1.553-1.348-3.141-2.258-4.641-2.713c-2.642-0.794-5.007-0.178-6.363,1.981
								C248.077,360.484,252.334,366.124,252.334,366.124z"/>
							<path style="fill:#393843;" d="M240.072,369.248c0,0,2.526,3.347,5.123,4.23c2.597,0.884,7.621,6.961,7.621,6.961
								l-0.384-11.387C246.497,369.498,240.072,369.248,240.072,369.248z"/>
							
								<linearGradient id="SVGID_00000041977840595119703890000005477684888355417484_" gradientUnits="userSpaceOnUse" x1="-2474.3389" y1="377.6771" x2="-2481.1335" y2="365.9082" gradientTransform="matrix(-1 0 0 1 -2225.4121 0)">
								<stop  offset="0.2622" style="stop-color:#393843"/>
								<stop  offset="0.7811" style="stop-color:#23222E"/>
							</linearGradient>
							<path style="fill:url(#SVGID_00000041977840595119703890000005477684888355417484_);" d="M245.274,367.285
								c0.375,3.257,2.008,6.979,4.587,9.933c1.419,1.633,2.954,2.82,4.426,3.516v0.009c1.196,0.571,2.347,0.83,3.391,0.768
								c0.08,0,0.161-0.009,0.241-0.027c0.25-0.018,0.491-0.063,0.723-0.134c0.17-0.741,0.25-1.544,0.25-2.383
								c0-0.384-0.018-0.776-0.053-1.169c-0.009-0.205-0.036-0.402-0.063-0.598c-0.018-0.134-0.036-0.268-0.054-0.402
								c-0.018-0.125-0.036-0.25-0.062-0.375c-0.062-0.375-0.134-0.759-0.232-1.142c-0.045-0.187-0.089-0.366-0.143-0.553
								c-0.036-0.161-0.08-0.312-0.134-0.464c-0.062-0.223-0.134-0.455-0.214-0.678c-0.053-0.17-0.107-0.339-0.17-0.5
								c-0.259-0.723-0.562-1.437-0.91-2.151c-0.071-0.152-0.143-0.294-0.214-0.437c-0.25-0.482-0.509-0.955-0.794-1.428
								c-0.196-0.33-0.41-0.66-0.625-0.982c-0.535-0.803-1.124-1.58-1.758-2.311c-0.321-0.366-0.643-0.714-0.973-1.035
								c-0.152-0.161-0.312-0.312-0.464-0.455c-0.045-0.045-0.098-0.089-0.143-0.134c-0.125-0.116-0.259-0.232-0.384-0.339
								c-1.553-1.348-3.141-2.258-4.641-2.713c-0.295,0.285-0.562,0.625-0.794,1.026c-0.214,0.375-0.393,0.776-0.526,1.223
								c-0.187,0.634-0.303,1.33-0.339,2.07C245.176,366.017,245.203,366.642,245.274,367.285z"/>
							
								<linearGradient id="SVGID_00000132803564361939817690000010515268913364116124_" gradientUnits="userSpaceOnUse" x1="-2475.3848" y1="368.9593" x2="-2480.8445" y2="370.5248" gradientTransform="matrix(-1 0 0 1 -2225.4121 0)">
								<stop  offset="0" style="stop-color:#ADAEB8"/>
								<stop  offset="0.0762" style="stop-color:#BABCC5"/>
								<stop  offset="0.1993" style="stop-color:#C9CBD4"/>
								<stop  offset="0.3421" style="stop-color:#D2D4DC"/>
								<stop  offset="0.5486" style="stop-color:#D5D7DF"/>
								<stop  offset="0.6619" style="stop-color:#C0C1CA"/>
								<stop  offset="1" style="stop-color:#868490"/>
							</linearGradient>
							<path style="fill:url(#SVGID_00000132803564361939817690000010515268913364116124_);" d="M252.775,372.753l-0.245,2.287
								v0.009L252.775,372.753l1.781-1.033l1.294-2.651c-0.196-0.33-0.41-0.66-0.625-0.982c-0.535-0.803-1.124-1.58-1.758-2.311
								c-0.321-0.366-0.643-0.714-0.973-1.035c-0.152-0.161-0.312-0.312-0.464-0.455c-0.045-0.045-0.098-0.089-0.143-0.134
								c-0.348,0.205-0.634,0.384-0.651,0.402l2.229,2.564L252.775,372.753z"/>
							
								<linearGradient id="SVGID_00000090270335022321765580000018312020458316660363_" gradientUnits="userSpaceOnUse" x1="-2477.9241" y1="379.3038" x2="-2482.3401" y2="377.5196" gradientTransform="matrix(-1 0 0 1 -2225.4121 0)">
								<stop  offset="0" style="stop-color:#ADAEB8"/>
								<stop  offset="0.0762" style="stop-color:#BABCC5"/>
								<stop  offset="0.1993" style="stop-color:#C9CBD4"/>
								<stop  offset="0.3421" style="stop-color:#D2D4DC"/>
								<stop  offset="0.5486" style="stop-color:#D5D7DF"/>
								<stop  offset="0.6619" style="stop-color:#C0C1CA"/>
								<stop  offset="1" style="stop-color:#868490"/>
							</linearGradient>
							<path style="fill:url(#SVGID_00000090270335022321765580000018312020458316660363_);" d="M252.775,372.753l-0.245,2.287
								v0.009l1.758,5.685l0.785,2.561c0.268,0.562-0.526,1.838-0.161,1.767c0.589-0.116,2.053-0.982,2.838-1.508
								c0.045-0.071,0.089-0.134,0.125-0.205c0.152-0.259,0.285-0.527,0.393-0.812c-0.018-0.134-0.063-0.268-0.134-0.41
								l-0.214-0.643l-3.213-9.46l-0.152-0.303L252.775,372.753z"/>
							
								<linearGradient id="SVGID_00000096761345288326779640000010255546314028947606_" gradientUnits="userSpaceOnUse" x1="-2470.4421" y1="370.2957" x2="-2472.9919" y2="365.8796" gradientTransform="matrix(-1 0 0 1 -2225.4121 0)">
								<stop  offset="0" style="stop-color:#ADAEB8"/>
								<stop  offset="0.0762" style="stop-color:#BABCC5"/>
								<stop  offset="0.1993" style="stop-color:#C9CBD4"/>
								<stop  offset="0.3421" style="stop-color:#D2D4DC"/>
								<stop  offset="0.5486" style="stop-color:#D5D7DF"/>
								<stop  offset="0.6619" style="stop-color:#C0C1CA"/>
								<stop  offset="1" style="stop-color:#868490"/>
							</linearGradient>
							<path style="fill:url(#SVGID_00000096761345288326779640000010255546314028947606_);" d="M242.031,364.256
								c0.15-0.079,0.354-0.062,0.573,0.065l8.53,3.611l0.239,0.137l0.009,4.579l-1.895-1.09l-7.069-2.771
								c-0.441-0.254-0.802-0.86-0.827-1.38c-0.048-1-1.59-1.218-1.399-2.083C240.228,365.16,241.919,364.316,242.031,364.256z"/>
							<g>
								<path style="fill:#DFDFE3;" d="M251.007,376.378l3.706-7.617c0.182-0.316,0.07-0.895-0.268-1.355
									c-0.351-0.477-0.723-0.942-1.115-1.391c-0.391-0.448-0.79-0.867-1.193-1.255c-0.388-0.373-0.813-0.409-0.994-0.093
									l-3.706,7.617L251.007,376.378z"/>
								<path style="fill:#DFDFE3;" d="M249.597,373.68l-0.009-4.579l-0.239-0.137l-8.53-3.611
									c-0.386-0.221-0.721-0.109-0.805,0.274c-0.19,0.865-0.257,1.813-0.209,2.813c0.025,0.52,0.386,1.126,0.827,1.38l7.069,2.771
									L249.597,373.68z"/>
								<path style="fill:#DFDFE3;" d="M256.324,384.323c0.249-0.194,0.258-0.681,0.025-1.168l-3.429-10.099l-0.145-0.304
									l-3.177,0.927l1.144,2.393l2.548,8.254c0.266,0.558,0.76,0.932,1.126,0.86C255.119,385.049,255.763,384.762,256.324,384.323
									z"/>
							</g>
						</g>
					</g>
				</g>
				<path style="fill:#4B4A4B;" d="M254.419,384.057c-0.041-0.046-0.092-0.113-0.136-0.205l-2.613-8.39l-3.258-3.736l-7.229-2.863
					c-0.105-0.06-0.269-0.322-0.277-0.478c-0.028-0.593-0.012-1.157,0.048-1.687l8.801,3.767l1.956-4.579
					c0.268,0.273,0.533,0.558,0.789,0.852c0.367,0.42,0.722,0.864,1.059,1.32c0.076,0.103,0.116,0.206,0.132,0.272l-2.013,4.677
					c0,0,3.686,10.636,3.689,10.643C255.077,383.833,254.76,383.969,254.419,384.057z"/>
			</g>
			<polygon style="fill:#F00000;" points="401.148,452.947 420.149,450.549 454.331,430.945 461.118,414.119 461.502,410.379 
				447.826,420.118 434.219,429.14 416.665,437.947 402.492,438.245 			"/>
			<path style="fill:#FF553D;" d="M413.153,444.33l11.928-10.812c0,0,7.922-3.69,14.254-7.248c6.332-3.559,10.78-6.92,10.78-6.92
				l7.408-1.087c0,0-7.179,7.379-9.639,10.182c-2.099,2.391-24.209,14.089-27.602,14.273
				C418.268,442.827,413.153,444.33,413.153,444.33z"/>
			<polygon style="fill:#F00000;" points="399.035,437.649 406.227,437.649 415.948,437.649 421.225,432.991 422.406,430.149 
				411.376,432.379 397.896,430.671 380.004,421.783 390.105,431.731 			"/>
			<path style="fill:#C3C2CE;" d="M417.67,432.035c-0.519,0.539-4.105,3.254-7.173,4.483c-0.216,0.086-0.428,0.161-0.634,0.232
				c-0.494,0.166-0.967,0.287-1.4,0.337c-0.116,0.015-0.232,0.025-0.343,0.03c-2.926,0.126-6.578,0.121-9.52-0.211
				c-2.07-0.232-9.333-3.158-11.444-5.238c-2.247-2.216-3.672-4.639-3.672-4.639l1.385-1.783c0,0,0.055,0,0.151,0
				c0.045,0.005,0.106,0.005,0.176,0.01c0.045,0,0.091,0.005,0.146,0.01c0.056,0.005,0.111,0.005,0.176,0.01
				c0.025,0.005,0.06,0.01,0.091,0.01c0.035,0.005,0.07,0.01,0.111,0.01c0.564,0.056,1.345,0.171,2.09,0.413
				c0.473,0.156,1.39,0.514,2.579,0.957c0.131,0.051,0.262,0.101,0.403,0.151c2.267,0.841,5.41,1.924,8.532,2.554
				c3.914,0.781,9.51,1.028,13.635,1.546c0.141,0.02,0.282,0.035,0.423,0.055h0.005c0.574,0.081,1.118,0.161,1.622,0.257
				c0.363,0.061,0.695,0.131,1.012,0.206L417.67,432.035z"/>
			<path style="fill:#FFFFFF;" d="M399.326,429.37c3.914,0.781,9.51,1.028,13.635,1.546c-1.36,1.013-3.158,2.176-4.755,2.634
				c-3.062,0.882-9.948,0.197-9.948,0.197s-7.933-2.801-7.974-3.516c-0.03-0.499,0.307-2.357,0.509-3.415
				C393.06,427.657,396.203,428.741,399.326,429.37z"/>
			<path style="fill:#FF553D;" d="M417.668,432.036c-0.518,0.535-4.1,3.253-7.168,4.48c-0.219,0.089-0.43,0.164-0.636,0.232
				c-0.506,0.169-0.978,0.287-1.399,0.341c-0.118,0.013-0.232,0.025-0.341,0.029c-2.929,0.126-6.582,0.118-9.52-0.211
				c-2.073-0.232-9.334-3.161-11.446-5.242c-2.246-2.217-3.675-4.635-3.675-4.635l1.387-1.787c0,0,0.055,0,0.152,0.004
				c0.046,0.004,0.105,0.004,0.177,0.008c0.046,0,0.093,0.004,0.147,0.008c0.055,0.004,0.11,0.008,0.173,0.013
				c0.029,0.004,0.063,0.008,0.093,0.008c0.038,0,0.076,0.004,0.114,0.008l-0.004,0.004l-1.298,1.513c0,0,2.246,3.477,3.974,4.589
				c1.728,1.117,10.207,3.97,10.207,3.97s7.101,0.468,9.469,0c1.934-0.379,5.639-3.135,6.937-4.142
				c0.362,0.063,0.699,0.135,1.015,0.211L417.668,432.036z"/>
			<path style="fill:#C3C2CE;" d="M462.08,404.382c-0.076,0-0.423,2.272-1.118,4.76c-0.116,0.418-0.443,0.801-0.766,1.174
				c-0.549,0.64-5.959,4.156-8.875,4.035l-0.076-0.005l1.41-2.035l0.091-0.126c0.005-0.01,0.015-0.015,0.02-0.025
				c2.544-2.921,5.168-7.339,6.608-9.374c0.363-0.514,0.589-1.4,0.715-2.236c0.136-0.876,0.161-1.702,0.121-1.999
				c-0.056-0.393-0.413-1.118-0.841-1.869c-0.67-1.168-1.496-2.393-1.581-2.513c0.146,0.171,2.02,2.398,3.083,4.941
				C461.975,401.753,462.08,404.382,462.08,404.382z"/>
			<path style="fill:#292929;" d="M412.905,443.026l11.928-10.812c0,0,7.904-4.043,14.236-7.602c6.332-3.559,10.78-6.92,10.78-6.92
				l7.426-0.734c0,0-7.178,7.379-9.639,10.182c-2.099,2.391-24.208,14.089-27.602,14.273
				C418.02,441.523,412.905,443.026,412.905,443.026z"/>
			<path style="fill:#CC0000;" d="M452.689,417.411c-2.321,2.409-5.754,6.002-7.308,7.772c-2.099,2.391-24.208,14.089-27.602,14.273
				c-0.301,0.016-0.672,0.064-1.084,0.133l-3.791,3.436c0,0,5.116-1.503,7.128-1.612c3.394-0.184,25.503-11.882,27.602-14.273
				c2.461-2.803,9.639-10.182,9.639-10.182L452.689,417.411z"/>
			<path style="fill:#C3C2CE;" d="M457.275,409.565c-0.005,0.005-0.005,0.01-0.01,0.015c-1.325,1.466-2.886,2.523-4.513,2.604
				c0.005-0.01,0.01-0.015,0.015-0.025c0.055-0.091,0.121-0.186,0.196-0.297c1.355-2.095,4.775-7.978,5.712-9.439
				c0.222-0.348,0.423-0.72,0.594-1.118c0.267-0.625,0.458-1.294,0.529-1.959c0.101-0.811,0.025-1.617-0.292-2.322
				c-0.065-0.146-0.111-0.262-0.136-0.343c-0.262-0.811,1.395,1.708,1.622,4.523C461.154,403.178,459.592,406.991,457.275,409.565z"
				/>
			<path style="fill:#FFFFFF;" d="M460.297,403.007c0,1.944-2.055,4.856-3.022,6.558c-0.005,0.005-0.005,0.01-0.01,0.015
				c-0.811,1.425-2.357,2.705-4.609,2.73l0.091-0.126c0.005-0.01,0.015-0.015,0.02-0.025c0.055-0.091,0.121-0.186,0.196-0.297
				c1.355-2.095,4.775-7.978,5.712-9.439c0.222-0.348,0.423-0.72,0.594-1.118c0.267-0.625,0.458-1.294,0.529-1.959
				c0.121,0.363,0.217,0.776,0.292,1.204C460.237,401.37,460.297,402.261,460.297,403.007z"/>
			<path style="fill:#FFCE49;" d="M389.532,426.468c0,0-1.589-0.597-1.881-0.659c-0.799-0.169-1.413-0.289-1.413-0.289l-1.07,1.303
				c0,0,1.226,2.048,2.188,3.011c1.245,0,1.649-0.627,1.649-0.627L389.532,426.468z"/>
			<path style="fill:#FF553D;" d="M367.697,416.973c-7.263-3.6-8.213-0.915-13.48,0.432c14.597,4.079,20.06,11.698,22.667,16.788
				c2.607,5.09,4.536,10.362,4.536,10.362C382.215,446.121,384.259,429.763,367.697,416.973z"/>
			<path style="fill:#FF553D;" d="M367.697,416.973c-8.867-5.659-11.478-4.058-14.184-2.876c-5.4,2.359-7.977,10.304-7.356,15.115
				c0.621,4.873,1.831,7.014,1.831,7.014s-0.993-7.728,0.31-10.366c1.303-2.638,1.583-4.593,5.059-7.076
				c3.476-2.483,10.609,1.024,10.609,1.024l7.717,3.911L367.697,416.973z"/>
			<path style="fill:#CC0000;" d="M382.028,450.206l1.147,6.967l-0.52-0.258l-1.505-0.869l-1.147-7.009
				c0-9.954-7.031-22.084-15.708-27.094c-8.676-5.009-15.71-0.999-15.71,8.955l1.147,7.009l-2.023-1.168l-1.147-7.009
				c0-11.237,7.939-15.766,17.734-10.111C374.089,425.274,382.028,438.97,382.028,450.206z"/>
			<path style="fill:#CC0000;" d="M463.003,417.235c-3.964,4.776-6.808,6.803-11.857,10.858
				c-5.049,4.056-23.92,15.282-30.128,16.937c-6.207,1.655-12.305,3.884-21.05,1.9c-8.745-1.983-13.38-3.473-13.38-3.473
				l1.449,3.474c0,0,0.703,8.734,5.544,9.355c4.842,0.621,13.485-0.686,22.87-3.081c9.386-2.395,30.555-16.049,30.555-16.049
				l8.07-6.298l5.261-8.095l2.129-3.408L463.003,417.235z"/>
			<path style="fill:#FF553D;" d="M460.917,423.036l-0.484,1.693l-4.529,6.346l-8.43,7.548l-19.804,11.434l-16.142,6.639
				l-12.628,2.438l-2.473,0.3l-13.251-2.262l-0.521-0.258l-1.058-0.611c0.112-1.433,1.314-2.639,1.579-3.357
				c0.479-1.306,4.862-6.016,4.862-6.016s3.089,6.18,7.399,7.305c0.151,0.04,0.305,0.072,0.462,0.099
				c1.368,0.233,3.109,0.226,4.874,0.097c4.114-0.293,8.37-1.227,8.37-1.227l17.214-6.935l22.429-13.075l6.788-5.942l2.247-2.302
				l1.877-1.919l0.631-0.447l0.022,0.449H460.917z"/>
			<path style="fill:#292929;" d="M409.142,453.206c2.793-3.416,5.401-4.534,9.063-5.216c3.662-0.683,13.112-5.488,18.93-8.825
				c5.817-3.337,12.588-7.334,13.721-8.732c1.133-1.397,4.159-3.615,4.718-3.178c-0.786,1.947-5.579,6.049-5.579,6.049
				s-5.22,3.962-16.029,9.95C423.156,449.241,417.647,450.663,409.142,453.206z"/>
			<path style="fill:#C3C2CE;" d="M226.809,330.728l-8.58-3.961l-1.559-0.721l-0.91-6.363l0.855-2.996l6.186-6.266l-0.662,1.016
				c0,0-4.981,4.758-4.981,5.192c0,0.164,0.367,0.797,0.818,1.521c0.737,1.172,1.707,2.583,1.707,2.583l4.581,5.875L226.809,330.728
				z"/>
			<polygon style="fill:#E9D7A7;" points="214.626,325.995 218.279,321.957 218.279,318.624 217.158,316.627 222.139,311.435 
				222.801,310.42 216.615,316.686 215.759,319.683 			"/>
			<path style="fill:#FF5030;" d="M226.541,330.316l-0.122,0.683l-2.263,0.19l-6.195-4.834l-1.266-1.991l0.386-3.976
				c0,0,0.493-2.099,0.628-2.651c0.738,1.172,1.707,2.583,1.707,2.583l4.581,5.875L226.541,330.316z"/>
			<path style="fill:#FF4123;" d="M218.877,325.793l5.506,4.254l1.894-0.159l-2.281-3.693l-4.581-5.875c0,0-0.55-0.801-1.136-1.696
				c-0.148,0.627-0.283,1.202-0.283,1.202l-0.386,3.976L218.877,325.793z"/>
			<polygon style="fill:#C3C2CE;" points="437.822,418.042 436.743,420.203 433.879,420.423 434.958,418.262 			"/>
			<path style="fill:#FF553D;" d="M365.051,334.099c5.492-3.582,13.05-10.535,13.05-10.535l0.48-1.345l-0.058-0.061l-63.064,36.41
				l34.716,40.925l9.536-2.785c0,0-4.834-1.857-6.978-2.643c-2.143-0.785-6.098-7.183-13.613-16.076
				c-7.515-8.893-19.311-19.73-19.311-19.73s7.933-3.405,12.851-5.769C337.578,350.125,359.559,337.681,365.051,334.099z"/>
		</g>
		<path style="fill:#FF553D;" d="M341.853,396.412c0,0,1.1-0.159,1.554-0.532c0.453-0.372,0.114-1.741-0.659-2.231
			c-0.774-0.49-2.944,0.598-3.303,0.413c-0.359-0.185-2.562,0.746-2.562,0.746l0.715,1.574L341.853,396.412z"/>
		<path style="fill:#FF553D;" d="M337.483,390.7c2.044-0.511,4.127,0.157,4.403,2.476c0.334,2.815-0.904,3.263-1.651,3.616
			c-0.747,0.354-3.538,1.573-7.076,1.612c-3.538,0.039-3.969-1.851-3.97-3.11c0-0.18,0.004-0.168,0.014-0.334
			c0.1-1.795,0.748-2.329,1.952-2.688C333.754,391.497,337.483,390.7,337.483,390.7z"/>
		<path style="fill:#FF3717;" d="M341.084,391.868c-1.174-0.365-3.604,0.109-5.992,0.628c-2.389,0.518-4.183,0.478-4.372,2.799
			c-0.189,2.32,0.563,2.885,1.555,3.037c0.992,0.152,2.874,0.138,5.707-0.686c2.833-0.824,3.232-1.289,3.674-2.071
			C342.098,394.794,342.254,392.232,341.084,391.868z"/>
	</g>
	<g>
		<g>
			<path style="fill:#D9E0EA;" d="M274.766,187.173l98.186-56.688l0.021,7.423c0.235,82.805-46.34,132.361-48.791,134.969
				c-2.458,0.226-49.16,4.524-49.395-78.281L274.766,187.173z M360.352,194.138c4.1-15.006,6.418-30.441,6.919-45.996
				l-86.743,50.081c0.588,14.926,2.986,27.638,7.157,37.869c3.808,9.35,9.097,16.666,15.724,21.751
				c8.379,6.43,16.861,7.645,20.752,7.842c3.877-4.681,12.325-15.671,20.64-31.739C351.379,221.237,356.617,207.842,360.352,194.138
				L360.352,194.138z"/>
			<path style="fill:#7FC732;" d="M367.271,148.142c-0.502,15.555-2.82,30.99-6.92,45.996c-3.734,13.704-8.973,27.099-15.55,39.808
				c-8.315,16.069-16.763,27.058-20.64,31.739c-3.891-0.196-12.373-1.411-20.752-7.842c-6.628-5.085-11.917-12.402-15.724-21.751
				c-4.172-10.231-6.569-22.943-7.157-37.869L367.271,148.142z"/>
			<polygon style="fill:#F6F7F8;" points="274.766,187.173 264.498,181.206 362.684,124.518 372.952,130.485 			"/>
			<path style="fill:#C1C7CE;" d="M274.787,194.596l-0.021-7.423l-10.268-5.967l0.021,7.423
				c0.132,46.362,14.83,65.419,28.173,73.173l10.268,5.967C289.617,260.015,274.918,240.958,274.787,194.596z"/>
		</g>
		<g>
			<polygon style="fill:#F6F7F8;" points="344.457,182.099 338.079,178.393 348.802,180.115 355.18,183.821 			"/>
			<polygon style="fill:#CBD5E2;" points="327.313,222.863 320.935,219.157 338.079,178.393 344.457,182.099 			"/>
			<polygon style="fill:#CBD5E2;" points="308.505,232.781 302.127,229.075 311.092,213.547 317.47,217.254 			"/>
			<polygon style="fill:#A9A9A9;" points="327.313,222.863 320.935,219.157 311.092,213.547 317.47,217.254 			"/>
			<polygon style="fill:#F6F6F6;" points="344.457,182.099 355.18,183.821 329.546,244.772 308.505,232.781 317.47,217.254 
				327.313,222.863 			"/>
			<polygon style="fill:#8DEA2F;" points="310.194,232.324 317.925,218.933 327.911,224.624 345.218,183.472 353.433,184.79 
				328.948,243.011 			"/>
		</g>
	</g>
	<g>
		<path style="fill:#131313;" d="M345.543,345.549c1.429,2.932,5.333,2.11,6.442,1.412c1.109-0.698,10.354-5.916,11.751-6.985
			c1.397-1.068-0.353-4.468-0.353-4.468S353.094,341.567,345.543,345.549z"/>
		<path style="fill:#63747D;" d="M358.885,343.553l-3.569,2.06c-1.999,1.154-3.966,2.445-5.893,3.866l0,0
			c-0.628,0.464-0.976,1.407-0.809,2.192l0.443,2.077c0.168,0.786,0.798,1.164,1.464,0.88l0,0c2.044-0.872,4.07-1.887,6.069-3.041
			l3.569-2.06c1.999-1.154,3.966-2.445,5.893-3.866l0,0c0.628-0.464,0.976-1.406,0.809-2.192l-0.443-2.077
			c-0.167-0.786-0.797-1.164-1.464-0.88l0,0C362.91,341.384,360.884,342.399,358.885,343.553z"/>
		<path style="fill:#63747D;" d="M359.669,346.201c-0.04-1.019-0.26-3.834-0.26-3.834l-3.549,0.074c0,0,0.395,3.99,0.439,4.136
			c0.2,0.649,1.066,1.367,1.439,1.329C358.609,347.815,359.713,347.301,359.669,346.201z"/>
		<path style="fill:#63747D;" d="M359.112,341.509c0.543,0.747,0.322,1.736-0.494,2.21c-0.816,0.474-1.918,0.252-2.461-0.494
			c-0.543-0.747-0.322-1.736,0.494-2.21C357.467,340.541,358.569,340.763,359.112,341.509z"/>
	</g>
</g>
</svg>
